<svg xmlns="http://www.w3.org/2000/svg" viewBox="0 0 560 260" fill="none"><defs><linearGradient id="a" x2="1" y2="1"><stop stop-color="#dcf5ee"/><stop offset="1" stop-color="#329b99"/></linearGradient><linearGradient id="b" x2="0" y2="1"><stop stop-color="#c0e7dd"/><stop offset="1" stop-color="#008b86"/></linearGradient></defs><path d="M0 260C70 185 98 234 152 181S280 70 368 123 473 73 560 0V260" fill="#fff" opacity=".35"/><path d="M293 259V116c0-40 39-56 79-97 39 41 79 57 79 97v144" stroke="#fffdf5" stroke-width="6" opacity=".65"/><path d="M384 164c-55-22-39-59 0-83 40 24 54 61 0 83" fill="url(#b)"/><path d="M341 161h86v99h-86z" fill="url(#a)" stroke="#f3f7e7" stroke-width="4"/><path d="M366 260v-58q18-33 36 0v58" fill="#f2f9ed"/><path d="M376 64a15 15 0 1 0 20 22 13 13 0 0 1-20-22" fill="#3b9c9b"/><path d="M315 260V149h12v111M443 260V149h12v111M311 147q10-29 20 0M439 147q10-29 20 0" fill="url(#b)" stroke="#fff9dc" stroke-width="2"/><path d="M258 260v-58h48v58M252 202q30-53 60 0" fill="url(#a)"/><path d="M294 38a23 23 0 1 0 27 35 21 21 0 0 1-27-35" fill="#dfb84d" opacity=".7"/><path d="M500 258q-50-87-47-100 37 10 44 53-1-80 16-95 21 40 2 101 29-62 45-69v112M220 260q-38-40-35-54 36 2 37 33 10-44 30-43-2 34-19 64" fill="#318c87" opacity=".7"/><path d="M0 260q74-51 152-22t165 1 243-6v27" fill="#7fc9bd" opacity=".65"/></svg>
